<?xml version="1.0" standalone="no"?>
<svg xmlns:xlink="http://www.w3.org/1999/xlink" id="wave" style="transform:rotate(180deg); transition: 0.3s" viewBox="0 0 1440 490" version="1.1" xmlns="http://www.w3.org/2000/svg"><defs><linearGradient id="sw-gradient-0" x1="0" x2="0" y1="1" y2="0"><stop stop-color="rgba(39, 112, 76, 1)" offset="0%"/><stop stop-color="rgba(39, 112, 76, 1)" offset="100%"/></linearGradient></defs><path style="transform:translate(0, 0px); opacity:1" fill="url(#sw-gradient-0)" d="M0,196L240,204.2C480,212,960,229,1440,212.3C1920,196,2400,147,2880,138.8C3360,131,3840,163,4320,179.7C4800,196,5280,196,5760,179.7C6240,163,6720,131,7200,147C7680,163,8160,229,8640,277.7C9120,327,9600,359,10080,351.2C10560,343,11040,294,11520,277.7C12000,261,12480,278,12960,236.8C13440,196,13920,98,14400,89.8C14880,82,15360,163,15840,171.5C16320,180,16800,114,17280,130.7C17760,147,18240,245,18720,294C19200,343,19680,343,20160,359.3C20640,376,21120,408,21600,408.3C22080,408,22560,376,23040,375.7C23520,376,24000,408,24480,367.5C24960,327,25440,212,25920,147C26400,82,26880,65,27360,49C27840,33,28320,16,28800,24.5C29280,33,29760,65,30240,65.3C30720,65,31200,33,31680,65.3C32160,98,32640,196,33120,212.3C33600,229,34080,163,34320,130.7L34560,98L34560,490L34320,490C34080,490,33600,490,33120,490C32640,490,32160,490,31680,490C31200,490,30720,490,30240,490C29760,490,29280,490,28800,490C28320,490,27840,490,27360,490C26880,490,26400,490,25920,490C25440,490,24960,490,24480,490C24000,490,23520,490,23040,490C22560,490,22080,490,21600,490C21120,490,20640,490,20160,490C19680,490,19200,490,18720,490C18240,490,17760,490,17280,490C16800,490,16320,490,15840,490C15360,490,14880,490,14400,490C13920,490,13440,490,12960,490C12480,490,12000,490,11520,490C11040,490,10560,490,10080,490C9600,490,9120,490,8640,490C8160,490,7680,490,7200,490C6720,490,6240,490,5760,490C5280,490,4800,490,4320,490C3840,490,3360,490,2880,490C2400,490,1920,490,1440,490C960,490,480,490,240,490L0,490Z"/></svg>