<?xml version="1.0" standalone="no"?>
<svg xmlns:xlink="http://www.w3.org/1999/xlink" id="wave" style="transform:rotate(0deg); transition: 0.3s" viewBox="0 0 1440 490" version="1.1" xmlns="http://www.w3.org/2000/svg"><defs><linearGradient id="sw-gradient-0" x1="0" x2="0" y1="1" y2="0"><stop stop-color="rgba(39, 112, 76, 1)" offset="0%"/><stop stop-color="rgba(0, 41.4, 20.983, 1)" offset="100%"/></linearGradient></defs><path style="transform:translate(0, 0px); opacity:1" fill="url(#sw-gradient-0)" d="M0,147L48,130.7C96,114,192,82,288,89.8C384,98,480,147,576,196C672,245,768,294,864,261.3C960,229,1056,114,1152,57.2C1248,0,1344,0,1440,24.5C1536,49,1632,98,1728,106.2C1824,114,1920,82,2016,114.3C2112,147,2208,245,2304,294C2400,343,2496,343,2592,310.3C2688,278,2784,212,2880,196C2976,180,3072,212,3168,228.7C3264,245,3360,245,3456,236.8C3552,229,3648,212,3744,196C3840,180,3936,163,4032,147C4128,131,4224,114,4320,163.3C4416,212,4512,327,4608,351.2C4704,376,4800,310,4896,269.5C4992,229,5088,212,5184,245C5280,278,5376,359,5472,334.8C5568,310,5664,180,5760,138.8C5856,98,5952,147,6048,212.3C6144,278,6240,359,6336,367.5C6432,376,6528,310,6624,245C6720,180,6816,114,6864,81.7L6912,49L6912,490L6864,490C6816,490,6720,490,6624,490C6528,490,6432,490,6336,490C6240,490,6144,490,6048,490C5952,490,5856,490,5760,490C5664,490,5568,490,5472,490C5376,490,5280,490,5184,490C5088,490,4992,490,4896,490C4800,490,4704,490,4608,490C4512,490,4416,490,4320,490C4224,490,4128,490,4032,490C3936,490,3840,490,3744,490C3648,490,3552,490,3456,490C3360,490,3264,490,3168,490C3072,490,2976,490,2880,490C2784,490,2688,490,2592,490C2496,490,2400,490,2304,490C2208,490,2112,490,2016,490C1920,490,1824,490,1728,490C1632,490,1536,490,1440,490C1344,490,1248,490,1152,490C1056,490,960,490,864,490C768,490,672,490,576,490C480,490,384,490,288,490C192,490,96,490,48,490L0,490Z"/></svg>